
<svg width="80" height="80" viewBox="0 0 80 80" fill="none" xmlns="http://www.w3.org/2000/svg">
  <rect width="80" height="80" rx="8" fill="#F5EFE0"/>
  <path d="M20 25C20 23.3431 21.3431 22 23 22H57C58.6569 22 60 23.3431 60 25V55C60 56.6569 58.6569 58 57 58H23C21.3431 58 20 56.6569 20 55V25Z" fill="#8B2635"/>
  <path d="M23 26H57V54H23V26Z" fill="#F5EFE0"/>
  <path d="M35 32C35 30.8954 35.8954 30 37 30H43C44.1046 30 45 30.8954 45 32V48C45 49.1046 44.1046 50 43 50H37C35.8954 50 35 49.1046 35 48V32Z" fill="#D4AF37"/>
  <circle cx="40" cy="40" r="5" fill="#8B2635"/>
</svg>
